<?xml version="1.0" encoding="UTF-8" standalone="no"?>
<!-- Created with Inkscape (http://www.inkscape.org/) -->

<svg
   width="48"
   height="48"
   viewBox="0 0 12.7 12.7"
   version="1.1"
   id="svg5"
   xmlns="http://www.w3.org/2000/svg"
   xmlns:svg="http://www.w3.org/2000/svg">
  <defs
     id="defs2">
    <meshgradient
       id="meshgradient3097"
       gradientUnits="userSpaceOnUse"
       x="208.1942"
       y="78.413597">
      <meshrow
         id="meshrow3099">
        <meshpatch
           id="meshpatch3101">
          <stop
             path="c 40.4141,-39.4597  105.938,-39.4597  146.352,0"
             style="stop-color:#ffffff;stop-opacity:1"
             id="stop3103" />
          <stop
             path="c 40.4141,39.4597  40.4141,103.436  0,142.896"
             style="stop-color:#00ffff;stop-opacity:1"
             id="stop3105" />
          <stop
             path="c -40.4141,39.4597  -105.938,39.4597  -146.352,2.84217e-14"
             style="stop-color:#ffffff;stop-opacity:1"
             id="stop3107" />
          <stop
             path="c -40.4141,-39.4597  -40.4141,-103.436  -2.84217e-14,-142.896"
             style="stop-color:#00ffff;stop-opacity:1"
             id="stop3109" />
        </meshpatch>
      </meshrow>
    </meshgradient>
  </defs>
  <g
     id="layer4" />
  <g
     id="layer1">
    <text
       xml:space="preserve"
       style="font-style:normal;font-weight:normal;font-size:10.5833px;line-height:1.25;font-family:sans-serif;fill:#000000;fill-opacity:1;stroke:none;stroke-width:0.264583"
       x="111.83791"
       y="150.53679"
       id="text31016"><tspan
         style="stroke-width:0.264583"
         x="111.83791"
         y="150.53679"
         id="tspan2469" /></text>
  </g>
  <g
     id="layer2">
    <g
       id="g1972"
       transform="matrix(0.04696253,0,0,0.04696253,-6.8254964,-0.30669383)">
      <path
         style="fill:#a90000;fill-opacity:0.803922;stroke:none;stroke-width:0.260691px;stroke-linecap:butt;stroke-linejoin:miter;stroke-opacity:1"
         d="m 173.36302,90.821046 -18.18084,15.877634 17.94971,13.6094 0.077,-7.02072 133.70652,0.0381 8.81694,-15.756897 -142.52342,0.165157 -0.0769,-6.912693"
         id="path14987" />
      <path
         style="fill:#aa0000;fill-opacity:0.800813;stroke:none;stroke-width:0.579086px;stroke-linecap:butt;stroke-linejoin:miter;stroke-opacity:1"
         d="m 409.55932,112.17287 -11.04716,17.97386 -128.88074,0.2921 13.99499,-17.83783 z"
         id="path15637" />
      <ellipse
         style="opacity:0.98;mix-blend-mode:lighten;fill:url(#meshgradient3097);fill-opacity:1;fill-rule:nonzero;stroke:#0d0457;stroke-width:2.55339;stroke-miterlimit:4;stroke-dasharray:none;stroke-dashoffset:0.899999;stroke-opacity:1"
         id="path5649"
         cx="281.37039"
         cy="149.86168"
         rx="103.48676"
         ry="101.04285" />
      <path
         style="fill:#a7a7a7;fill-opacity:0.495935;stroke:#000000;stroke-width:0.685076;stroke-linecap:butt;stroke-linejoin:miter;stroke-miterlimit:4;stroke-dasharray:none;stroke-opacity:1"
         d="m 209.05789,93.888954 77.26192,-2.684856 6.51594,-14.492955 -7.69973,-0.174072 5.55097,-13.915639 -18.08542,0.174072 -13.78791,12.524101 z"
         id="path15804" />
      <path
         style="fill:#a0baa0;fill-opacity:1;stroke:#000000;stroke-width:0.685076;stroke-linecap:butt;stroke-linejoin:miter;stroke-miterlimit:4;stroke-dasharray:none;stroke-opacity:1"
         d="M 345.18313,97.925565 332.9807,84.823849 c 0.68246,5.97659 2.76199,10.245941 -0.13419,13.191652 z"
         id="path16199" />
      <path
         style="fill:#95b595;fill-opacity:1;stroke:#000000;stroke-width:0.719669;stroke-linecap:butt;stroke-linejoin:miter;stroke-miterlimit:4;stroke-dasharray:none;stroke-opacity:1"
         d="m 323.98455,75.896353 c 0.61939,5.242144 1.17999,13.325033 1.17999,13.325033 -0.015,3.69162 -1.13227,6.352603 -2.59355,8.861942 l 6.37937,0.0214 c 0.4137,-2.540962 3.0515,-4.67911 2.58786,-8.811269 -0.23328,-6.930278 -6.98893,-8.162952 -7.55367,-13.397122 z"
         id="path15938-3" />
      <path
         style="fill:#95b595;fill-opacity:1;stroke:#000000;stroke-width:0.871826;stroke-linecap:butt;stroke-linejoin:miter;stroke-miterlimit:4;stroke-dasharray:none;stroke-opacity:1"
         d="m 312.40515,66.917991 c 0.6194,7.693151 2.40863,18.792152 2.40863,18.792152 -0.015,5.417682 -0.39508,8.801679 -1.85637,12.484272 l 6.13364,0.171163 c 0.4137,-3.728987 2.56005,-6.48533 2.09641,-12.549509 -0.23328,-10.170545 -2.08295,-11.056441 -8.78231,-18.897924 z"
         id="path15938-3-7" />
      <path
         style="fill:#95b595;fill-opacity:1;stroke:#000000;stroke-width:1.09538;stroke-linecap:butt;stroke-linejoin:miter;stroke-miterlimit:4;stroke-dasharray:none;stroke-opacity:1"
         d="m 300.14035,63.543407 c 2.83522,9.082065 3.42232,14.807499 3.42232,14.807499 -0.0233,5.529351 -3.01335,14.410587 -4.53649,18.995783 1.18108,0.883573 8.45642,0.441195 9.59338,0.605245 0.47751,-3.637813 2.26228,-7.453339 1.54536,-13.642718 0.34477,-10.471524 -5.53766,-18.727277 -10.02457,-20.765809 z"
         id="path15938-3-3" />
      <text
         xml:space="preserve"
         style="font-size:34.3936px;line-height:1.25;font-family:'Varela Round';-inkscape-font-specification:'Varela Round, Normal';fill:#636363;fill-opacity:1;stroke:#000000;stroke-width:0.216714;stroke-miterlimit:4;stroke-dasharray:none;stroke-opacity:1"
         x="303.1113"
         y="135.55759"
         id="text10057"
         transform="scale(0.98287545,1.0174229)"><tspan
           id="tspan10055"
           style="fill:#636363;fill-opacity:1;stroke:#000000;stroke-width:0.216714;stroke-miterlimit:4;stroke-dasharray:none;stroke-opacity:1"
           x="303.1113"
           y="135.55759">טרק</tspan></text>
      <text
         xml:space="preserve"
         style="font-size:57.6466px;line-height:1.25;font-family:'Varela Round';-inkscape-font-specification:'Varela Round, Normal';stroke:#ffffff;stroke-width:1.44019;stroke-miterlimit:4;stroke-dasharray:none;stroke-opacity:0.475645"
         x="244.36549"
         y="186.04964"
         id="text12019"
         transform="scale(0.98287545,1.0174229)"><tspan
           id="tspan12017"
           style="stroke:#ffffff;stroke-width:1.44019;stroke-miterlimit:4;stroke-dasharray:none;stroke-opacity:0.475645"
           x="244.36549"
           y="186.04964">אישי</tspan></text>
      <path
         style="fill:#ff7b24;fill-opacity:0.800813;stroke:#000000;stroke-width:0.188895;stroke-linecap:butt;stroke-linejoin:miter;stroke-miterlimit:4;stroke-dasharray:none;stroke-opacity:1"
         d="m 285.51695,93.400839 -77.20477,68.280031 c -11.90717,13.24454 -19.28685,20.12478 -16.46478,31.51808 6.42035,16.41313 11.94676,9.83378 22.24365,12.52667 l 133.11481,5.65567 c 1.62216,-5.66008 0.69445,-10.91002 0.0383,-16.71353 l -124.63198,-3.53018 c -7.94307,0.57043 -11.47281,2.18612 -14.91537,-4.64893 1.11741,-6.9983 6.17859,-10.52279 6.17859,-10.52279 l 80.25408,-71.46174 c -2.89352,-7.392911 -8.61244,-11.103281 -8.61244,-11.103281"
         id="path12385" />
      <rect
         style="opacity:0.98;fill:none;fill-opacity:0.803922;stroke:#000000;stroke-width:0.718376;stroke-dashoffset:0.899999;stroke-opacity:1"
         id="rect1667"
         width="268.85382"
         height="268.85382"
         x="146.46494"
         y="7.6388311"
         ry="0" />
      <path
         style="opacity:0.98;fill:#00ffff;fill-opacity:1;stroke-width:0.330626;stroke-dashoffset:0.899999"
         d="m 23.276388,32.98449 c -1.2453,-0.0359 -1.708327,-0.07815 -1.734983,-0.158314 -0.02,-0.06014 -0.08754,-0.109348 -0.150089,-0.109348 -0.08848,0 -0.255867,-0.43169 -0.192009,-0.495197 0.0078,-0.0077 0.309383,0.08521 0.670231,0.206559 0.593433,0.199559 0.752154,0.216518 1.662084,0.177589 1.285543,-0.055 1.732258,-0.210147 2.332068,-0.809958 0.658382,-0.658382 0.740043,-0.986519 0.793995,-3.190466 0.04942,-2.018721 -0.0188,-2.390717 -0.458665,-2.501116 -0.307135,-0.07709 -0.638907,0.08443 -0.744635,0.362521 -0.04715,0.124006 -0.08572,1.021548 -0.08572,1.994537 0,1.660624 -0.01207,1.792998 -0.196826,2.159389 -0.137951,0.273564 -0.314578,0.455736 -0.590478,0.609014 -0.346413,0.192452 -0.498625,0.218695 -1.268433,0.218695 -0.771,0 -0.920953,-0.02595 -1.263961,-0.218695 -0.700289,-0.39352 -0.741698,-0.541477 -0.791776,-2.829079 -0.04312,-1.96968 -0.04667,-2.000407 -0.250256,-2.165084 -0.275961,-0.223221 -0.55301,-0.210709 -0.784233,0.03542 -0.183295,0.195109 -0.190521,0.275348 -0.198924,2.208823 -0.0048,1.103497 -0.03432,1.915464 -0.06561,1.804371 -0.03129,-0.111094 -0.09625,-0.189825 -0.144367,-0.174957 -0.04811,0.01487 -0.100057,-0.06154 -0.115432,-0.169793 -0.01796,-0.12649 -0.0883,-0.196826 -0.196826,-0.196826 -0.09463,0 -0.168872,-0.05996 -0.168872,-0.13638 0,-0.07501 -0.04202,-0.110413 -0.09337,-0.07868 -0.05141,0.03177 -0.11496,-0.02487 -0.14142,-0.126054 -0.02736,-0.104637 -0.118993,-0.183759 -0.212807,-0.183759 -0.154288,0 -0.164754,-0.08639 -0.164754,-1.359887 0,-1.327194 -0.0052,-1.36505 -0.214719,-1.574607 -0.27246,-0.272461 -0.522795,-0.272461 -0.795256,0 -0.200825,0.200825 -0.214719,0.274412 -0.214719,1.137216 0,0.761678 -0.02287,0.922497 -0.131217,0.922497 -0.07217,0 -0.131217,-0.03544 -0.131217,-0.07875 0,-0.04331 -0.196826,-0.125971 -0.437391,-0.183682 -0.240565,-0.05771 -0.437391,-0.133806 -0.437391,-0.169102 0,-0.0353 -0.04921,-0.06788 -0.109348,-0.07242 -0.06014,-0.0045 -0.331277,-0.08098 -0.602525,-0.169872 l -0.493178,-0.161626 4.101651,-3.651476 c 2.255909,-2.008311 4.101652,-3.629574 4.101652,-3.602806 0,0.02677 -0.295239,0.415738 -0.656086,0.864377 -0.360847,0.448639 -0.656086,0.840733 -0.656086,0.871319 0,0.03059 1.219209,0.05561 2.709354,0.05561 h 2.709354 l 0.02434,1.193441 c 0.0209,1.025019 0.04594,1.207048 0.177425,1.289855 0.111516,0.07023 0.194657,0.07023 0.306174,0 0.131482,-0.08281 0.156521,-0.264836 0.177424,-1.289855 l 0.02434,-1.193441 0.238096,-6.21e-4 c 0.130953,-3.41e-4 0.513652,-0.02037 0.850443,-0.0445 0.336791,-0.02414 0.568862,-0.02248 0.515714,0.0037 -0.05315,0.02615 -0.07976,0.135851 -0.05912,0.243771 0.05535,0.289526 -0.214072,0.481845 -0.719658,0.513713 -0.420849,0.02653 -0.436757,0.03709 -0.436757,0.289964 0,0.260631 0.0037,0.262612 0.543189,0.288386 0.676235,0.03231 1.038461,-0.135455 1.21746,-0.563861 0.106164,-0.254085 0.150617,-0.289255 0.255543,-0.202174 0.06986,0.05798 0.127023,0.0761 0.127023,0.04026 0,-0.03584 0.05905,-0.01616 0.131217,0.04374 0.07217,0.0599 0.131217,0.0783 0.131217,0.04089 0,-0.0374 0.07873,0.0032 0.174956,0.09032 0.09623,0.08708 0.176209,0.122708 0.177739,0.07917 0.0015,-0.04354 0.06058,-0.0028 0.131217,0.09064 0.127137,0.168089 0.128454,0.168089 0.130381,0 0.0017,-0.151852 0.02003,-0.146683 0.173011,0.04889 0.11623,0.148592 0.172581,0.176634 0.175793,0.08748 0.0036,-0.100515 0.03478,-0.09149 0.133162,0.03859 0.08186,0.10823 0.128435,0.127105 0.128435,0.05205 0,-0.08516 0.04843,-0.07393 0.174957,0.04058 0.09623,0.08708 0.174956,0.127729 0.174956,0.09032 0,-0.0374 0.05905,-0.019 0.131217,0.04089 0.104687,0.08688 0.131217,0.08688 0.131217,0 0,-0.08688 0.02653,-0.08688 0.131218,0 0.07217,0.0599 0.131217,0.08159 0.131217,0.0482 0,-0.03338 0.0567,-0.004 0.126008,0.06531 0.0693,0.0693 0.235812,0.113955 0.370016,0.09922 0.134204,-0.01473 0.273724,0.01995 0.310043,0.07707 0.04815,0.07572 0.0664,0.07133 0.06737,-0.01621 0.0011,-0.10176 0.02339,-0.10176 0.145977,0 0.07955,0.06603 0.22717,0.12138 0.328043,0.122994 0.100872,0.0016 0.232612,0.03346 0.292753,0.07077 0.06405,0.03974 0.109348,0.02503 0.109348,-0.03552 0,-0.07384 0.04026,-0.06994 0.140977,0.01365 0.07754,0.06435 0.303888,0.124118 0.502999,0.132817 0.199113,0.0087 0.381705,0.02446 0.405762,0.03502 0.02406,0.01056 0.0831,0.02835 0.131217,0.03953 0.04811,0.01118 0.107161,0.03042 0.131217,0.04276 0.02406,0.01234 0.220882,0.03392 0.437391,0.04795 0.216508,0.01403 0.413334,0.03401 0.437391,0.04438 0.02406,0.01038 0.142152,0.02811 0.262434,0.03941 0.120282,0.0113 0.238378,0.03069 0.262434,0.0431 0.02406,0.01241 0.220883,0.03404 0.437391,0.04807 0.216509,0.01403 0.393652,0.03243 0.393652,0.04088 0,0.0085 0.255873,0.0353 0.568608,0.05967 0.312734,0.02436 0.637497,0.04967 0.721695,0.05623 0.0842,0.0066 0.153086,0.03349 0.153086,0.05983 0,0.02634 0.236191,0.04697 0.524869,0.04583 0.288678,-0.0011 0.524871,0.01807 0.524873,0.0427 3e-6,0.02463 0.246035,0.05033 0.546739,0.05711 0.300703,0.0068 0.615623,0.01663 0.699821,0.02187 0.130936,0.0082 0.153087,0.101875 0.153087,0.647717 v 0.638183 l -2.121346,0.157506 c -1.166739,0.08663 -2.593727,0.206415 -3.171083,0.266194 -0.577355,0.05978 -1.063136,0.07486 -1.079511,0.03351 -0.01637,-0.04135 -0.143971,-0.13423 -0.283549,-0.206408 -0.334409,-0.17293 -0.666126,-0.0827 -0.824931,0.224398 -0.111496,0.215611 -0.200034,0.25512 -0.76238,0.340199 -0.349928,0.05294 -0.911789,0.172291 -1.24858,0.26522 l -0.612347,0.168962 -0.526252,-0.56315 c -0.58633,-0.62744 -0.79654,-0.691699 -1.139809,-0.34843 -0.274378,0.274378 -0.271952,0.548717 0.0082,0.927371 0.182147,0.246188 0.198148,0.306473 0.08748,0.329583 -0.0745,0.01556 -0.135447,0.06298 -0.135447,0.105384 0,0.04241 -0.137778,0.102947 -0.306173,0.134538 -0.168396,0.03159 -0.306174,0.09242 -0.306174,0.135181 0,0.04276 -0.05905,0.07774 -0.131217,0.07774 -0.07217,0 -0.131217,0.03937 -0.131217,0.08748 0,0.04811 -0.07545,0.08748 -0.167667,0.08748 -0.09222,0 -0.187522,0.04921 -0.211789,0.109348 -0.02427,0.06014 -0.04723,-0.330653 -0.05103,-0.868432 -0.0067,-0.948397 -0.01383,-0.983229 -0.237399,-1.159086 -0.302688,-0.238095 -0.517167,-0.228901 -0.779482,0.03341 -0.210131,0.210131 -0.214719,0.244713 -0.214719,1.618346 0,0.877432 -0.03279,1.403626 -0.08748,1.403626 -0.04811,0 -0.08748,0.07873 -0.08748,0.174957 0,0.0972 -0.05832,0.174956 -0.131218,0.174956 -0.08165,0 -0.131217,0.08262 -0.131217,0.218695 0,0.160377 -0.04666,0.218696 -0.174956,0.218696 -0.136078,0 -0.174956,0.05832 -0.174956,0.262434 0,0.17403 -0.04385,0.262435 -0.130184,0.262435 -0.08424,0 -0.149932,0.123498 -0.186137,0.349912 -0.03375,0.211046 -0.103591,0.349913 -0.17599,0.349913 -0.08395,0 -0.120037,0.118353 -0.120037,0.393651 0,0.335333 -0.02592,0.393652 -0.174956,0.393652 -0.15375,0 -0.174956,0.05832 -0.174956,0.48113 v 0.48113 l -0.590478,-0.01664 c -0.324762,-0.0092 -1.354858,-0.03868 -2.289101,-0.06561 z m 0.288945,-2.378485 c 0.372912,-0.16991 0.415981,-0.435823 0.38693,-2.388929 -0.02657,-1.786147 -0.03021,-1.81706 -0.233506,-1.981521 -0.261056,-0.211187 -0.57799,-0.213601 -0.785608,-0.006 -0.141591,0.141592 -0.168536,0.379943 -0.222686,1.969891 -0.06699,1.96708 -0.03258,2.181577 0.383769,2.392171 0.265298,0.134191 0.211714,0.132557 0.471101,0.01437 z"
         id="path3150"
         transform="matrix(5.6339242,0,0,5.6339242,145.3392,6.5306071)" />
    </g>
    <rect
       style="opacity:0.98;fill:#a90000;fill-opacity:0.803922;stroke-width:0.667999;stroke-dashoffset:0.899999;stroke-opacity:0.475645"
       id="rect1773"
       width="6.2846093"
       height="4.1897402"
       x="498.57901"
       y="-89.031967" />
  </g>
  <script
     id="mesh_polyfill"
     type="text/javascript">
!function(){const t=&quot;http://www.w3.org/2000/svg&quot;,e=&quot;http://www.w3.org/1999/xlink&quot;,s=&quot;http://www.w3.org/1999/xhtml&quot;,r=2;if(document.createElementNS(t,&quot;meshgradient&quot;).x)return;const n=(t,e,s,r)=&gt;{let n=new x(.5*(e.x+s.x),.5*(e.y+s.y)),o=new x(.5*(t.x+e.x),.5*(t.y+e.y)),i=new x(.5*(s.x+r.x),.5*(s.y+r.y)),a=new x(.5*(n.x+o.x),.5*(n.y+o.y)),h=new x(.5*(n.x+i.x),.5*(n.y+i.y)),l=new x(.5*(a.x+h.x),.5*(a.y+h.y));return[[t,o,a,l],[l,h,i,r]]},o=t=&gt;{let e=t[0].distSquared(t[1]),s=t[2].distSquared(t[3]),r=.25*t[0].distSquared(t[2]),n=.25*t[1].distSquared(t[3]),o=e&gt;s?e:s,i=r&gt;n?r:n;return 18*(o&gt;i?o:i)},i=(t,e)=&gt;Math.sqrt(t.distSquared(e)),a=(t,e)=&gt;t.scale(2/3).add(e.scale(1/3)),h=t=&gt;{let e,s,r,n,o,i,a,h=new g;return t.match(/(\w+\(\s*[^)]+\))+/g).forEach(t=&gt;{let l=t.match(/[\w.-]+/g),d=l.shift();switch(d){case&quot;translate&quot;:2===l.length?e=new g(1,0,0,1,l[0],l[1]):(console.error(&quot;mesh.js: translate does not have 2 arguments!&quot;),e=new g(1,0,0,1,0,0)),h=h.append(e);break;case&quot;scale&quot;:1===l.length?s=new g(l[0],0,0,l[0],0,0):2===l.length?s=new g(l[0],0,0,l[1],0,0):(console.error(&quot;mesh.js: scale does not have 1 or 2 arguments!&quot;),s=new g(1,0,0,1,0,0)),h=h.append(s);break;case&quot;rotate&quot;:if(3===l.length&amp;&amp;(e=new g(1,0,0,1,l[1],l[2]),h=h.append(e)),l[0]){r=l[0]*Math.PI/180;let t=Math.cos(r),e=Math.sin(r);Math.abs(t)&lt;1e-16&amp;&amp;(t=0),Math.abs(e)&lt;1e-16&amp;&amp;(e=0),a=new g(t,e,-e,t,0,0),h=h.append(a)}else console.error(&quot;math.js: No argument to rotate transform!&quot;);3===l.length&amp;&amp;(e=new g(1,0,0,1,-l[1],-l[2]),h=h.append(e));break;case&quot;skewX&quot;:l[0]?(r=l[0]*Math.PI/180,n=Math.tan(r),o=new g(1,0,n,1,0,0),h=h.append(o)):console.error(&quot;math.js: No argument to skewX transform!&quot;);break;case&quot;skewY&quot;:l[0]?(r=l[0]*Math.PI/180,n=Math.tan(r),i=new g(1,n,0,1,0,0),h=h.append(i)):console.error(&quot;math.js: No argument to skewY transform!&quot;);break;case&quot;matrix&quot;:6===l.length?h=h.append(new g(...l)):console.error(&quot;math.js: Incorrect number of arguments for matrix!&quot;);break;default:console.error(&quot;mesh.js: Unhandled transform type: &quot;+d)}}),h},l=t=&gt;{let e=[],s=t.split(/[ ,]+/);for(let t=0,r=s.length-1;t&lt;r;t+=2)e.push(new x(parseFloat(s[t]),parseFloat(s[t+1])));return e},d=(t,e)=&gt;{for(let s in e)t.setAttribute(s,e[s])},c=(t,e,s,r,n)=&gt;{let o,i,a=[0,0,0,0];for(let h=0;h&lt;3;++h)e[h]&lt;t[h]&amp;&amp;e[h]&lt;s[h]||t[h]&lt;e[h]&amp;&amp;s[h]&lt;e[h]?a[h]=0:(a[h]=.5*((e[h]-t[h])/r+(s[h]-e[h])/n),o=Math.abs(3*(e[h]-t[h])/r),i=Math.abs(3*(s[h]-e[h])/n),a[h]&gt;o?a[h]=o:a[h]&gt;i&amp;&amp;(a[h]=i));return a},u=[[1,0,0,0,0,0,0,0,0,0,0,0,0,0,0,0],[0,0,0,0,1,0,0,0,0,0,0,0,0,0,0,0],[-3,3,0,0,-2,-1,0,0,0,0,0,0,0,0,0,0],[2,-2,0,0,1,1,0,0,0,0,0,0,0,0,0,0],[0,0,0,0,0,0,0,0,1,0,0,0,0,0,0,0],[0,0,0,0,0,0,0,0,0,0,0,0,1,0,0,0],[0,0,0,0,0,0,0,0,-3,3,0,0,-2,-1,0,0],[0,0,0,0,0,0,0,0,2,-2,0,0,1,1,0,0],[-3,0,3,0,0,0,0,0,-2,0,-1,0,0,0,0,0],[0,0,0,0,-3,0,3,0,0,0,0,0,-2,0,-1,0],[9,-9,-9,9,6,3,-6,-3,6,-6,3,-3,4,2,2,1],[-6,6,6,-6,-3,-3,3,3,-4,4,-2,2,-2,-2,-1,-1],[2,0,-2,0,0,0,0,0,1,0,1,0,0,0,0,0],[0,0,0,0,2,0,-2,0,0,0,0,0,1,0,1,0],[-6,6,6,-6,-4,-2,4,2,-3,3,-3,3,-2,-1,-2,-1],[4,-4,-4,4,2,2,-2,-2,2,-2,2,-2,1,1,1,1]],f=t=&gt;{let e=[];for(let s=0;s&lt;16;++s){e[s]=0;for(let r=0;r&lt;16;++r)e[s]+=u[s][r]*t[r]}return e},p=(t,e,s)=&gt;{const r=e*e,n=s*s,o=e*e*e,i=s*s*s;return t[0]+t[1]*e+t[2]*r+t[3]*o+t[4]*s+t[5]*s*e+t[6]*s*r+t[7]*s*o+t[8]*n+t[9]*n*e+t[10]*n*r+t[11]*n*o+t[12]*i+t[13]*i*e+t[14]*i*r+t[15]*i*o},y=t=&gt;{let e=[],s=[],r=[];for(let s=0;s&lt;4;++s)e[s]=[],e[s][0]=n(t[0][s],t[1][s],t[2][s],t[3][s]),e[s][1]=[],e[s][1].push(...n(...e[s][0][0])),e[s][1].push(...n(...e[s][0][1])),e[s][2]=[],e[s][2].push(...n(...e[s][1][0])),e[s][2].push(...n(...e[s][1][1])),e[s][2].push(...n(...e[s][1][2])),e[s][2].push(...n(...e[s][1][3]));for(let t=0;t&lt;8;++t){s[t]=[];for(let r=0;r&lt;4;++r)s[t][r]=[],s[t][r][0]=n(e[0][2][t][r],e[1][2][t][r],e[2][2][t][r],e[3][2][t][r]),s[t][r][1]=[],s[t][r][1].push(...n(...s[t][r][0][0])),s[t][r][1].push(...n(...s[t][r][0][1])),s[t][r][2]=[],s[t][r][2].push(...n(...s[t][r][1][0])),s[t][r][2].push(...n(...s[t][r][1][1])),s[t][r][2].push(...n(...s[t][r][1][2])),s[t][r][2].push(...n(...s[t][r][1][3]))}for(let t=0;t&lt;8;++t){r[t]=[];for(let e=0;e&lt;8;++e)r[t][e]=[],r[t][e][0]=s[t][0][2][e],r[t][e][1]=s[t][1][2][e],r[t][e][2]=s[t][2][2][e],r[t][e][3]=s[t][3][2][e]}return r};class x{constructor(t,e){this.x=t||0,this.y=e||0}toString(){return`(x=${this.x}, y=${this.y})`}clone(){return new x(this.x,this.y)}add(t){return new x(this.x+t.x,this.y+t.y)}scale(t){return void 0===t.x?new x(this.x*t,this.y*t):new x(this.x*t.x,this.y*t.y)}distSquared(t){let e=this.x-t.x,s=this.y-t.y;return e*e+s*s}transform(t){let e=this.x*t.a+this.y*t.c+t.e,s=this.x*t.b+this.y*t.d+t.f;return new x(e,s)}}class g{constructor(t,e,s,r,n,o){void 0===t?(this.a=1,this.b=0,this.c=0,this.d=1,this.e=0,this.f=0):(this.a=t,this.b=e,this.c=s,this.d=r,this.e=n,this.f=o)}toString(){return`affine: ${this.a} ${this.c} ${this.e} \n       ${this.b} ${this.d} ${this.f}`}append(t){t instanceof g||console.error(&quot;mesh.js: argument to Affine.append is not affine!&quot;);let e=this.a*t.a+this.c*t.b,s=this.b*t.a+this.d*t.b,r=this.a*t.c+this.c*t.d,n=this.b*t.c+this.d*t.d,o=this.a*t.e+this.c*t.f+this.e,i=this.b*t.e+this.d*t.f+this.f;return new g(e,s,r,n,o,i)}}class w{constructor(t,e){this.nodes=t,this.colors=e}paintCurve(t,e){if(o(this.nodes)&gt;r){const s=n(...this.nodes);let r=[[],[]],o=[[],[]];for(let t=0;t&lt;4;++t)r[0][t]=this.colors[0][t],r[1][t]=(this.colors[0][t]+this.colors[1][t])/2,o[0][t]=r[1][t],o[1][t]=this.colors[1][t];let i=new w(s[0],r),a=new w(s[1],o);i.paintCurve(t,e),a.paintCurve(t,e)}else{let s=Math.round(this.nodes[0].x);if(s&gt;=0&amp;&amp;s&lt;e){let r=4*(~~this.nodes[0].y*e+s);t[r]=Math.round(this.colors[0][0]),t[r+1]=Math.round(this.colors[0][1]),t[r+2]=Math.round(this.colors[0][2]),t[r+3]=Math.round(this.colors[0][3])}}}}class m{constructor(t,e){this.nodes=t,this.colors=e}split(){let t=[[],[],[],[]],e=[[],[],[],[]],s=[[[],[]],[[],[]]],r=[[[],[]],[[],[]]];for(let s=0;s&lt;4;++s){const r=n(this.nodes[0][s],this.nodes[1][s],this.nodes[2][s],this.nodes[3][s]);t[0][s]=r[0][0],t[1][s]=r[0][1],t[2][s]=r[0][2],t[3][s]=r[0][3],e[0][s]=r[1][0],e[1][s]=r[1][1],e[2][s]=r[1][2],e[3][s]=r[1][3]}for(let t=0;t&lt;4;++t)s[0][0][t]=this.colors[0][0][t],s[0][1][t]=this.colors[0][1][t],s[1][0][t]=(this.colors[0][0][t]+this.colors[1][0][t])/2,s[1][1][t]=(this.colors[0][1][t]+this.colors[1][1][t])/2,r[0][0][t]=s[1][0][t],r[0][1][t]=s[1][1][t],r[1][0][t]=this.colors[1][0][t],r[1][1][t]=this.colors[1][1][t];return[new m(t,s),new m(e,r)]}paint(t,e){let s,n=!1;for(let t=0;t&lt;4;++t)if((s=o([this.nodes[0][t],this.nodes[1][t],this.nodes[2][t],this.nodes[3][t]]))&gt;r){n=!0;break}if(n){let s=this.split();s[0].paint(t,e),s[1].paint(t,e)}else{new w([...this.nodes[0]],[...this.colors[0]]).paintCurve(t,e)}}}class b{constructor(t){this.readMesh(t),this.type=t.getAttribute(&quot;type&quot;)||&quot;bilinear&quot;}readMesh(t){let e=[[]],s=[[]],r=Number(t.getAttribute(&quot;x&quot;)),n=Number(t.getAttribute(&quot;y&quot;));e[0][0]=new x(r,n);let o=t.children;for(let t=0,r=o.length;t&lt;r;++t){e[3*t+1]=[],e[3*t+2]=[],e[3*t+3]=[],s[t+1]=[];let r=o[t].children;for(let n=0,o=r.length;n&lt;o;++n){let o=r[n].children;for(let r=0,i=o.length;r&lt;i;++r){let i=r;0!==t&amp;&amp;++i;let h,d=o[r].getAttribute(&quot;path&quot;),c=&quot;l&quot;;null!=d&amp;&amp;(c=(h=d.match(/\s*([lLcC])\s*(.*)/))[1]);let u=l(h[2]);switch(c){case&quot;l&quot;:0===i?(e[3*t][3*n+3]=u[0].add(e[3*t][3*n]),e[3*t][3*n+1]=a(e[3*t][3*n],e[3*t][3*n+3]),e[3*t][3*n+2]=a(e[3*t][3*n+3],e[3*t][3*n])):1===i?(e[3*t+3][3*n+3]=u[0].add(e[3*t][3*n+3]),e[3*t+1][3*n+3]=a(e[3*t][3*n+3],e[3*t+3][3*n+3]),e[3*t+2][3*n+3]=a(e[3*t+3][3*n+3],e[3*t][3*n+3])):2===i?(0===n&amp;&amp;(e[3*t+3][3*n+0]=u[0].add(e[3*t+3][3*n+3])),e[3*t+3][3*n+1]=a(e[3*t+3][3*n],e[3*t+3][3*n+3]),e[3*t+3][3*n+2]=a(e[3*t+3][3*n+3],e[3*t+3][3*n])):(e[3*t+1][3*n]=a(e[3*t][3*n],e[3*t+3][3*n]),e[3*t+2][3*n]=a(e[3*t+3][3*n],e[3*t][3*n]));break;case&quot;L&quot;:0===i?(e[3*t][3*n+3]=u[0],e[3*t][3*n+1]=a(e[3*t][3*n],e[3*t][3*n+3]),e[3*t][3*n+2]=a(e[3*t][3*n+3],e[3*t][3*n])):1===i?(e[3*t+3][3*n+3]=u[0],e[3*t+1][3*n+3]=a(e[3*t][3*n+3],e[3*t+3][3*n+3]),e[3*t+2][3*n+3]=a(e[3*t+3][3*n+3],e[3*t][3*n+3])):2===i?(0===n&amp;&amp;(e[3*t+3][3*n+0]=u[0]),e[3*t+3][3*n+1]=a(e[3*t+3][3*n],e[3*t+3][3*n+3]),e[3*t+3][3*n+2]=a(e[3*t+3][3*n+3],e[3*t+3][3*n])):(e[3*t+1][3*n]=a(e[3*t][3*n],e[3*t+3][3*n]),e[3*t+2][3*n]=a(e[3*t+3][3*n],e[3*t][3*n]));break;case&quot;c&quot;:0===i?(e[3*t][3*n+1]=u[0].add(e[3*t][3*n]),e[3*t][3*n+2]=u[1].add(e[3*t][3*n]),e[3*t][3*n+3]=u[2].add(e[3*t][3*n])):1===i?(e[3*t+1][3*n+3]=u[0].add(e[3*t][3*n+3]),e[3*t+2][3*n+3]=u[1].add(e[3*t][3*n+3]),e[3*t+3][3*n+3]=u[2].add(e[3*t][3*n+3])):2===i?(e[3*t+3][3*n+2]=u[0].add(e[3*t+3][3*n+3]),e[3*t+3][3*n+1]=u[1].add(e[3*t+3][3*n+3]),0===n&amp;&amp;(e[3*t+3][3*n+0]=u[2].add(e[3*t+3][3*n+3]))):(e[3*t+2][3*n]=u[0].add(e[3*t+3][3*n]),e[3*t+1][3*n]=u[1].add(e[3*t+3][3*n]));break;case&quot;C&quot;:0===i?(e[3*t][3*n+1]=u[0],e[3*t][3*n+2]=u[1],e[3*t][3*n+3]=u[2]):1===i?(e[3*t+1][3*n+3]=u[0],e[3*t+2][3*n+3]=u[1],e[3*t+3][3*n+3]=u[2]):2===i?(e[3*t+3][3*n+2]=u[0],e[3*t+3][3*n+1]=u[1],0===n&amp;&amp;(e[3*t+3][3*n+0]=u[2])):(e[3*t+2][3*n]=u[0],e[3*t+1][3*n]=u[1]);break;default:console.error(&quot;mesh.js: &quot;+c+&quot; invalid path type.&quot;)}if(0===t&amp;&amp;0===n||r&gt;0){let e=window.getComputedStyle(o[r]).stopColor.match(/^rgb\s*\(\s*(\d+)\s*,\s*(\d+)\s*,\s*(\d+)\s*\)$/i),a=window.getComputedStyle(o[r]).stopOpacity,h=255;a&amp;&amp;(h=Math.floor(255*a)),e&amp;&amp;(0===i?(s[t][n]=[],s[t][n][0]=Math.floor(e[1]),s[t][n][1]=Math.floor(e[2]),s[t][n][2]=Math.floor(e[3]),s[t][n][3]=h):1===i?(s[t][n+1]=[],s[t][n+1][0]=Math.floor(e[1]),s[t][n+1][1]=Math.floor(e[2]),s[t][n+1][2]=Math.floor(e[3]),s[t][n+1][3]=h):2===i?(s[t+1][n+1]=[],s[t+1][n+1][0]=Math.floor(e[1]),s[t+1][n+1][1]=Math.floor(e[2]),s[t+1][n+1][2]=Math.floor(e[3]),s[t+1][n+1][3]=h):3===i&amp;&amp;(s[t+1][n]=[],s[t+1][n][0]=Math.floor(e[1]),s[t+1][n][1]=Math.floor(e[2]),s[t+1][n][2]=Math.floor(e[3]),s[t+1][n][3]=h))}}e[3*t+1][3*n+1]=new x,e[3*t+1][3*n+2]=new x,e[3*t+2][3*n+1]=new x,e[3*t+2][3*n+2]=new x,e[3*t+1][3*n+1].x=(-4*e[3*t][3*n].x+6*(e[3*t][3*n+1].x+e[3*t+1][3*n].x)+-2*(e[3*t][3*n+3].x+e[3*t+3][3*n].x)+3*(e[3*t+3][3*n+1].x+e[3*t+1][3*n+3].x)+-1*e[3*t+3][3*n+3].x)/9,e[3*t+1][3*n+2].x=(-4*e[3*t][3*n+3].x+6*(e[3*t][3*n+2].x+e[3*t+1][3*n+3].x)+-2*(e[3*t][3*n].x+e[3*t+3][3*n+3].x)+3*(e[3*t+3][3*n+2].x+e[3*t+1][3*n].x)+-1*e[3*t+3][3*n].x)/9,e[3*t+2][3*n+1].x=(-4*e[3*t+3][3*n].x+6*(e[3*t+3][3*n+1].x+e[3*t+2][3*n].x)+-2*(e[3*t+3][3*n+3].x+e[3*t][3*n].x)+3*(e[3*t][3*n+1].x+e[3*t+2][3*n+3].x)+-1*e[3*t][3*n+3].x)/9,e[3*t+2][3*n+2].x=(-4*e[3*t+3][3*n+3].x+6*(e[3*t+3][3*n+2].x+e[3*t+2][3*n+3].x)+-2*(e[3*t+3][3*n].x+e[3*t][3*n+3].x)+3*(e[3*t][3*n+2].x+e[3*t+2][3*n].x)+-1*e[3*t][3*n].x)/9,e[3*t+1][3*n+1].y=(-4*e[3*t][3*n].y+6*(e[3*t][3*n+1].y+e[3*t+1][3*n].y)+-2*(e[3*t][3*n+3].y+e[3*t+3][3*n].y)+3*(e[3*t+3][3*n+1].y+e[3*t+1][3*n+3].y)+-1*e[3*t+3][3*n+3].y)/9,e[3*t+1][3*n+2].y=(-4*e[3*t][3*n+3].y+6*(e[3*t][3*n+2].y+e[3*t+1][3*n+3].y)+-2*(e[3*t][3*n].y+e[3*t+3][3*n+3].y)+3*(e[3*t+3][3*n+2].y+e[3*t+1][3*n].y)+-1*e[3*t+3][3*n].y)/9,e[3*t+2][3*n+1].y=(-4*e[3*t+3][3*n].y+6*(e[3*t+3][3*n+1].y+e[3*t+2][3*n].y)+-2*(e[3*t+3][3*n+3].y+e[3*t][3*n].y)+3*(e[3*t][3*n+1].y+e[3*t+2][3*n+3].y)+-1*e[3*t][3*n+3].y)/9,e[3*t+2][3*n+2].y=(-4*e[3*t+3][3*n+3].y+6*(e[3*t+3][3*n+2].y+e[3*t+2][3*n+3].y)+-2*(e[3*t+3][3*n].y+e[3*t][3*n+3].y)+3*(e[3*t][3*n+2].y+e[3*t+2][3*n].y)+-1*e[3*t][3*n].y)/9}}this.nodes=e,this.colors=s}paintMesh(t,e){let s=(this.nodes.length-1)/3,r=(this.nodes[0].length-1)/3;if(&quot;bilinear&quot;===this.type||s&lt;2||r&lt;2){let n;for(let o=0;o&lt;s;++o)for(let s=0;s&lt;r;++s){let r=[];for(let t=3*o,e=3*o+4;t&lt;e;++t)r.push(this.nodes[t].slice(3*s,3*s+4));let i=[];i.push(this.colors[o].slice(s,s+2)),i.push(this.colors[o+1].slice(s,s+2)),(n=new m(r,i)).paint(t,e)}}else{let n,o,a,h,l,d,u;const x=s,g=r;s++,r++;let w=new Array(s);for(let t=0;t&lt;s;++t){w[t]=new Array(r);for(let e=0;e&lt;r;++e)w[t][e]=[],w[t][e][0]=this.nodes[3*t][3*e],w[t][e][1]=this.colors[t][e]}for(let t=0;t&lt;s;++t)for(let e=0;e&lt;r;++e)0!==t&amp;&amp;t!==x&amp;&amp;(n=i(w[t-1][e][0],w[t][e][0]),o=i(w[t+1][e][0],w[t][e][0]),w[t][e][2]=c(w[t-1][e][1],w[t][e][1],w[t+1][e][1],n,o)),0!==e&amp;&amp;e!==g&amp;&amp;(n=i(w[t][e-1][0],w[t][e][0]),o=i(w[t][e+1][0],w[t][e][0]),w[t][e][3]=c(w[t][e-1][1],w[t][e][1],w[t][e+1][1],n,o));for(let t=0;t&lt;r;++t){w[0][t][2]=[],w[x][t][2]=[];for(let e=0;e&lt;4;++e)n=i(w[1][t][0],w[0][t][0]),o=i(w[x][t][0],w[x-1][t][0]),w[0][t][2][e]=n&gt;0?2*(w[1][t][1][e]-w[0][t][1][e])/n-w[1][t][2][e]:0,w[x][t][2][e]=o&gt;0?2*(w[x][t][1][e]-w[x-1][t][1][e])/o-w[x-1][t][2][e]:0}for(let t=0;t&lt;s;++t){w[t][0][3]=[],w[t][g][3]=[];for(let e=0;e&lt;4;++e)n=i(w[t][1][0],w[t][0][0]),o=i(w[t][g][0],w[t][g-1][0]),w[t][0][3][e]=n&gt;0?2*(w[t][1][1][e]-w[t][0][1][e])/n-w[t][1][3][e]:0,w[t][g][3][e]=o&gt;0?2*(w[t][g][1][e]-w[t][g-1][1][e])/o-w[t][g-1][3][e]:0}for(let s=0;s&lt;x;++s)for(let r=0;r&lt;g;++r){let n=i(w[s][r][0],w[s+1][r][0]),o=i(w[s][r+1][0],w[s+1][r+1][0]),c=i(w[s][r][0],w[s][r+1][0]),x=i(w[s+1][r][0],w[s+1][r+1][0]),g=[[],[],[],[]];for(let t=0;t&lt;4;++t){(d=[])[0]=w[s][r][1][t],d[1]=w[s+1][r][1][t],d[2]=w[s][r+1][1][t],d[3]=w[s+1][r+1][1][t],d[4]=w[s][r][2][t]*n,d[5]=w[s+1][r][2][t]*n,d[6]=w[s][r+1][2][t]*o,d[7]=w[s+1][r+1][2][t]*o,d[8]=w[s][r][3][t]*c,d[9]=w[s+1][r][3][t]*x,d[10]=w[s][r+1][3][t]*c,d[11]=w[s+1][r+1][3][t]*x,d[12]=0,d[13]=0,d[14]=0,d[15]=0,u=f(d);for(let e=0;e&lt;9;++e){g[t][e]=[];for(let s=0;s&lt;9;++s)g[t][e][s]=p(u,e/8,s/8),g[t][e][s]&gt;255?g[t][e][s]=255:g[t][e][s]&lt;0&amp;&amp;(g[t][e][s]=0)}}h=[];for(let t=3*s,e=3*s+4;t&lt;e;++t)h.push(this.nodes[t].slice(3*r,3*r+4));l=y(h);for(let s=0;s&lt;8;++s)for(let r=0;r&lt;8;++r)(a=new m(l[s][r],[[[g[0][s][r],g[1][s][r],g[2][s][r],g[3][s][r]],[g[0][s][r+1],g[1][s][r+1],g[2][s][r+1],g[3][s][r+1]]],[[g[0][s+1][r],g[1][s+1][r],g[2][s+1][r],g[3][s+1][r]],[g[0][s+1][r+1],g[1][s+1][r+1],g[2][s+1][r+1],g[3][s+1][r+1]]]])).paint(t,e)}}}transform(t){if(t instanceof x)for(let e=0,s=this.nodes.length;e&lt;s;++e)for(let s=0,r=this.nodes[0].length;s&lt;r;++s)this.nodes[e][s]=this.nodes[e][s].add(t);else if(t instanceof g)for(let e=0,s=this.nodes.length;e&lt;s;++e)for(let s=0,r=this.nodes[0].length;s&lt;r;++s)this.nodes[e][s]=this.nodes[e][s].transform(t)}scale(t){for(let e=0,s=this.nodes.length;e&lt;s;++e)for(let s=0,r=this.nodes[0].length;s&lt;r;++s)this.nodes[e][s]=this.nodes[e][s].scale(t)}}document.querySelectorAll(&quot;rect,circle,ellipse,path,text&quot;).forEach((r,n)=&gt;{let o=r.getAttribute(&quot;id&quot;);o||(o=&quot;patchjs_shape&quot;+n,r.setAttribute(&quot;id&quot;,o));const i=r.style.fill.match(/^url\(\s*&quot;?\s*#([^\s&quot;]+)&quot;?\s*\)/),a=r.style.stroke.match(/^url\(\s*&quot;?\s*#([^\s&quot;]+)&quot;?\s*\)/);if(i&amp;&amp;i[1]){const a=document.getElementById(i[1]);if(a&amp;&amp;&quot;meshgradient&quot;===a.nodeName){const i=r.getBBox();let l=document.createElementNS(s,&quot;canvas&quot;);d(l,{width:i.width,height:i.height});const c=l.getContext(&quot;2d&quot;);let u=c.createImageData(i.width,i.height);const f=new b(a);&quot;objectBoundingBox&quot;===a.getAttribute(&quot;gradientUnits&quot;)&amp;&amp;f.scale(new x(i.width,i.height));const p=a.getAttribute(&quot;gradientTransform&quot;);null!=p&amp;&amp;f.transform(h(p)),&quot;userSpaceOnUse&quot;===a.getAttribute(&quot;gradientUnits&quot;)&amp;&amp;f.transform(new x(-i.x,-i.y)),f.paintMesh(u.data,l.width),c.putImageData(u,0,0);const y=document.createElementNS(t,&quot;image&quot;);d(y,{width:i.width,height:i.height,x:i.x,y:i.y});let g=l.toDataURL();y.setAttributeNS(e,&quot;xlink:href&quot;,g),r.parentNode.insertBefore(y,r),r.style.fill=&quot;none&quot;;const w=document.createElementNS(t,&quot;use&quot;);w.setAttributeNS(e,&quot;xlink:href&quot;,&quot;#&quot;+o);const m=&quot;patchjs_clip&quot;+n,M=document.createElementNS(t,&quot;clipPath&quot;);M.setAttribute(&quot;id&quot;,m),M.appendChild(w),r.parentElement.insertBefore(M,r),y.setAttribute(&quot;clip-path&quot;,&quot;url(#&quot;+m+&quot;)&quot;),u=null,l=null,g=null}}if(a&amp;&amp;a[1]){const o=document.getElementById(a[1]);if(o&amp;&amp;&quot;meshgradient&quot;===o.nodeName){const i=parseFloat(r.style.strokeWidth.slice(0,-2))*(parseFloat(r.style.strokeMiterlimit)||parseFloat(r.getAttribute(&quot;stroke-miterlimit&quot;))||1),a=r.getBBox(),l=Math.trunc(a.width+i),c=Math.trunc(a.height+i),u=Math.trunc(a.x-i/2),f=Math.trunc(a.y-i/2);let p=document.createElementNS(s,&quot;canvas&quot;);d(p,{width:l,height:c});const y=p.getContext(&quot;2d&quot;);let g=y.createImageData(l,c);const w=new b(o);&quot;objectBoundingBox&quot;===o.getAttribute(&quot;gradientUnits&quot;)&amp;&amp;w.scale(new x(l,c));const m=o.getAttribute(&quot;gradientTransform&quot;);null!=m&amp;&amp;w.transform(h(m)),&quot;userSpaceOnUse&quot;===o.getAttribute(&quot;gradientUnits&quot;)&amp;&amp;w.transform(new x(-u,-f)),w.paintMesh(g.data,p.width),y.putImageData(g,0,0);const M=document.createElementNS(t,&quot;image&quot;);d(M,{width:l,height:c,x:0,y:0});let S=p.toDataURL();M.setAttributeNS(e,&quot;xlink:href&quot;,S);const k=&quot;pattern_clip&quot;+n,A=document.createElementNS(t,&quot;pattern&quot;);d(A,{id:k,patternUnits:&quot;userSpaceOnUse&quot;,width:l,height:c,x:u,y:f}),A.appendChild(M),o.parentNode.appendChild(A),r.style.stroke=&quot;url(#&quot;+k+&quot;)&quot;,g=null,p=null,S=null}}})}();
</script>
</svg>
